<svg width="64" height="64" viewBox="0 0 64 64" fill="none" xmlns="http://www.w3.org/2000/svg">
  <path d="M32 54C22.5 46 14 39.2 14 29.8C14 23.4 18.9 18.5 25.4 18.5C29 18.5 32.4 20.3 34.4 23.3C36.5 20.3 39.9 18.5 43.5 18.5C50 18.5 54.9 23.4 54.9 29.8C54.9 39.2 46.5 46 37 54L32 58L32 54Z" fill="#FB7185"/>
  <path d="M32 54C41.5 46 50 39.2 50 29.8C50 24.9 46.3 21.2 41.4 21.2C37.9 21.2 34.7 23.2 33 26C31.3 23.2 28.1 21.2 24.6 21.2C19.7 21.2 16 24.9 16 29.8C16 39.2 24.5 46 34 54L32 56V54Z" fill="#F43F5E" opacity="0.55"/>
</svg>
